<svg width="25" height="25" viewBox="0 0 25 25" fill="none" xmlns="http://www.w3.org/2000/svg">
<g id="bi:arrow-down">
<g id="Group">
<path id="Vector" d="M5.19559 13.6812L9.42967 17.914L9.42972 17.914C9.65143 18.1357 9.77599 18.4364 9.77599 18.75C9.77599 19.0635 9.65143 19.3642 9.42972 19.586C9.208 19.8077 8.9073 19.9322 8.59375 19.9322C8.2802 19.9322 7.9795 19.8077 7.75778 19.586L1.50814 13.3363C1.39813 13.2266 1.31086 13.0962 1.25131 12.9527C1.19176 12.8092 1.1611 12.6554 1.1611 12.5C1.1611 12.3446 1.19176 12.1908 1.25131 12.0473C1.31086 11.9037 1.39813 11.7734 1.50814 11.6637L7.75778 5.41402C7.9795 5.19231 8.2802 5.06775 8.59375 5.06775C8.9073 5.06775 9.208 5.19231 9.42972 5.41402C9.65143 5.63574 9.77599 5.93644 9.77599 6.24999C9.77599 6.56354 9.65143 6.86425 9.42972 7.08596L9.42967 7.086L5.19559 11.3187L22.6562 11.3187C22.9695 11.3187 23.27 11.4432 23.4915 11.6647L23.2098 11.9464L23.4915 11.6647C23.713 11.8862 23.8375 12.1867 23.8375 12.5C23.8375 12.8133 23.713 13.1137 23.4915 13.3353C23.27 13.5568 22.9695 13.6812 22.6562 13.6812H5.19559Z" fill="white" stroke="white" stroke-width="0.8"/>
</g>
</g>
</svg>
