<svg width="20" height="20" viewBox="0 0 20 20" fill="none" xmlns="http://www.w3.org/2000/svg">
<g id="Group">
<path id="Vector" d="M7.90979 3.58687L9.20003 2.29892C9.41177 2.08726 9.6989 1.96835 9.99829 1.96835C10.2977 1.96835 10.5848 2.08726 10.7965 2.29892L12.0891 3.58802C12.3005 3.79985 12.5874 3.91906 12.8868 3.91943H14.9187C15.2181 3.91943 15.5053 4.03839 15.7171 4.25014C15.9288 4.46189 16.0478 4.74908 16.0478 5.04853V7.08046C16.0479 7.37961 16.1666 7.6665 16.3781 7.87814L17.6694 9.16838C17.8811 9.38012 18 9.66725 18 9.96664C18 10.266 17.8811 10.5532 17.6694 10.7649L16.3792 12.0563C16.1666 12.2677 16.0478 12.5545 16.0478 12.854V14.8859C16.0478 15.1853 15.9288 15.4725 15.7171 15.6843C15.5053 15.896 15.2181 16.015 14.9187 16.015H12.8868C12.5876 16.0151 12.3007 16.1338 12.0891 16.3453L10.7988 17.6366C10.5871 17.8483 10.3 17.9672 10.0006 17.9672C9.70118 17.9672 9.41405 17.8483 9.20232 17.6366L7.91093 16.3464C7.69951 16.1338 7.41267 16.015 7.11325 16.015H5.08132C4.45735 16.015 3.95222 15.5099 3.95222 14.8859V12.854C3.95222 12.5545 3.83337 12.2677 3.62195 12.0563L2.33057 10.766C2.1189 10.5543 2 10.2672 2 9.96778C2 9.66839 2.1189 9.38126 2.33057 9.16953L3.61966 7.877C3.8315 7.66554 3.9507 7.37863 3.95108 7.07932V5.04739C3.95108 4.74794 4.07004 4.46074 4.28179 4.249C4.49353 4.03725 4.78072 3.91829 5.08018 3.91829H7.11211C7.41142 3.91791 7.69833 3.79871 7.90979 3.58687Z" stroke="white" stroke-width="3"/>
</g>
</svg>
